<svg width="12" height="13" viewBox="0 0 12 13" fill="none" xmlns="http://www.w3.org/2000/svg">
<path d="M2.52422 4.04844C2.29922 4.13047 2.15625 4.33906 2.15625 4.5875C2.15625 4.67656 2.175 4.76563 2.20078 4.82422C2.22422 4.87578 3.00234 5.80391 3.93047 6.88672C5.21484 8.38438 5.64375 8.86953 5.72109 8.91406C5.80547 8.96328 5.85469 8.97266 6 8.97266C6.14531 8.97266 6.19453 8.96328 6.27891 8.91406C6.35625 8.86953 6.78516 8.38438 8.06953 6.88672C9.10313 5.67969 9.77344 4.87813 9.80156 4.81484C9.83672 4.7375 9.84609 4.67656 9.83906 4.55469C9.82734 4.35078 9.74063 4.20078 9.57656 4.09766L9.46172 4.02734L6.0375 4.02266C3.21797 4.01797 2.59688 4.02266 2.52422 4.04844Z" fill="#403C4E"/>
</svg>
